<svg width="48" height="49" viewBox="0 0 48 49" fill="none" xmlns="http://www.w3.org/2000/svg">
<mask id="path-1-outside-1_499_766" maskUnits="userSpaceOnUse" x="-0.5" y="-0.5" width="49" height="50" fill="black">
<rect fill="white" x="-0.5" y="-0.5" width="49" height="50"/>
<path d="M22.0632 0.55034C19.4623 0.907893 18.5216 1.1149 16.9906 1.60418C13.3014 2.78975 10.1841 4.72806 7.39874 7.58848C4.61342 10.4113 2.69505 13.6292 1.53297 17.3741C0.739796 19.9334 0.5 21.6271 0.5 24.5252C0.5 27.4232 0.739796 29.1169 1.53297 31.6762C2.69505 35.4399 4.59498 38.6203 7.39874 41.4619C10.1656 44.3035 13.3199 46.2606 16.9906 47.4462C19.4992 48.2554 21.1593 48.5 24 48.5C26.8407 48.5 28.5008 48.2554 31.0094 47.4462C34.6801 46.2606 37.8344 44.3035 40.6013 41.4619C43.3866 38.6391 45.3049 35.4211 46.467 31.6762C47.2602 29.1169 47.5 27.4232 47.5 24.5252C47.5 21.6271 47.2602 19.9334 46.467 17.3741C45.3049 13.6292 43.3866 10.4113 40.6013 7.58848C37.1888 4.10705 32.9462 1.79236 28.3532 0.907893C26.8591 0.606796 23.0962 0.399792 22.0632 0.55034ZM29.3862 2.56393C31.8026 3.20376 34.4957 4.42696 35.2335 5.21734L35.8422 5.85717L35.5102 6.94865C35.3257 7.56966 35.086 8.15303 34.9384 8.26594C34.7908 8.39767 33.0569 8.51059 30.3823 8.58586L26.0475 8.71759L22.7272 7.08038C20.8827 6.19591 19.3885 5.36789 19.3885 5.25498C19.3885 5.14207 19.5914 4.40814 19.8312 3.63658C20.2739 2.24401 20.2924 2.22519 20.9933 2.09346C21.3807 2.03701 23.0224 1.99937 24.6456 2.03701C27.0989 2.07464 27.9105 2.16874 29.3862 2.56393ZM18.6507 2.77093C18.6507 2.80857 18.4847 3.41076 18.2818 4.08823L17.8944 5.33025L14.2422 8.13422L10.5899 10.9382L8.61617 11.2393C5.94152 11.6533 5.84929 11.6533 6.12598 11.1264C6.2551 10.9005 7.1405 9.86552 8.11813 8.84932C10.6637 6.15827 13.5781 4.25759 16.9168 3.09084C17.9313 2.73329 18.6507 2.60156 18.6507 2.77093ZM37.8713 13.8174L40.4537 17.694L38.9411 21.4766C37.4655 25.165 37.4101 25.2779 36.8383 25.3532C36.5247 25.4096 34.9753 25.5414 33.4074 25.6543C31.8395 25.7672 30.2162 25.8989 29.8104 25.9554L29.0726 26.0495L26.3057 22.2481C24.7932 20.1593 23.4835 18.3339 23.4097 18.221C23.336 18.0892 23.9631 16.2262 24.8116 14.0621L26.3611 10.129L29.0173 10.0161C30.456 9.95961 32.4666 9.92198 33.4812 9.92198L35.3073 9.9408L37.8713 13.8174ZM11.4753 15.7745C12.0655 17.5247 12.5636 19.1242 12.5636 19.2936C12.5636 19.5383 9.37245 27.762 9.1511 28.0442C9.04042 28.2136 3.80181 29.211 3.69113 29.0981C3.41444 28.7782 1.84655 22.4363 1.95722 22.0223C2.03101 21.7965 2.82418 19.6888 3.72802 17.3553L5.38815 13.1023L7.26962 12.8012C8.30259 12.6507 9.42779 12.5378 9.77826 12.5566L10.4054 12.5754L11.4753 15.7745ZM43.6817 18.6161L45.0098 18.7291L45.5263 20.1781C46.0059 21.533 46.0428 21.7777 46.0428 24.7134C46.0428 27.0657 45.969 28.176 45.7108 29.3239C45.2681 31.2246 43.9584 34.6872 43.6264 34.8189C43.3866 34.913 40.4352 34.5743 40.2877 34.4425C40.2508 34.4049 39.8634 32.5231 39.4023 30.246L38.5907 26.1247L40.1032 22.2105C41.4498 18.7479 41.6527 18.315 41.9847 18.3903C42.1876 18.4468 42.9439 18.5409 43.6817 18.6161ZM25.0145 22.7374C26.5455 24.8451 27.7998 26.6893 27.8183 26.821C27.8552 26.9528 27.0989 28.8911 26.1582 31.1117L24.4427 35.1577L21.4176 35.4587C19.739 35.6281 17.6546 35.8351 16.7692 35.9104L15.1644 36.0421L12.7665 32.3537L10.3685 28.6464L11.5675 25.6919C12.2316 24.0735 12.9878 22.1917 13.2461 21.5142C13.5043 20.8367 13.781 20.2345 13.8363 20.1593C13.947 20.0275 20.9011 18.9549 21.8787 18.9172C22.1554 18.8984 22.967 19.877 25.0145 22.7374ZM41.8556 36.1174C42.3721 36.1927 42.8148 36.2868 42.8148 36.362C42.8148 36.4185 42.5012 36.9454 42.1323 37.51C40.9702 39.2789 38.2586 41.97 36.3218 43.2873C33.8685 44.9433 30.3638 46.5052 29.958 46.11C29.9027 46.0536 30.4192 44.9998 31.1016 43.7765L32.356 41.556L36.0636 38.6955C39.2916 36.2115 39.845 35.8351 40.3246 35.9104C40.6381 35.948 41.3206 36.0421 41.8556 36.1174ZM27.7261 38.8273C29.3862 40.0881 30.7696 41.1796 30.7881 41.2737C30.8434 41.4054 28.6484 45.5455 28.3348 45.9407C28.2979 45.9783 26.5824 46.2041 24.4796 46.4676C19.3701 47.0886 19.3701 47.0886 16.0867 44.4728C14.7402 43.419 13.6888 42.4404 13.7257 42.3275L14.5004 39.9564C14.8878 38.7708 15.2751 37.717 15.3489 37.6041C15.4965 37.4723 22.1185 36.7008 24.2214 36.5879C24.6087 36.569 25.4941 37.1524 27.7261 38.8273ZM11.4015 42.3087C12.1393 42.5533 12.5451 42.8356 13.1354 43.5507C13.5412 44.0588 13.7995 44.4728 13.6888 44.4728C13.4674 44.4728 11.8811 43.5131 10.7559 42.6851C9.99961 42.1393 9.74137 41.7818 10.221 41.9323C10.3316 41.97 10.8666 42.1393 11.4015 42.3087Z"/>
</mask>
<path d="M22.0632 0.55034C19.4623 0.907893 18.5216 1.1149 16.9906 1.60418C13.3014 2.78975 10.1841 4.72806 7.39874 7.58848C4.61342 10.4113 2.69505 13.6292 1.53297 17.3741C0.739796 19.9334 0.5 21.6271 0.5 24.5252C0.5 27.4232 0.739796 29.1169 1.53297 31.6762C2.69505 35.4399 4.59498 38.6203 7.39874 41.4619C10.1656 44.3035 13.3199 46.2606 16.9906 47.4462C19.4992 48.2554 21.1593 48.5 24 48.5C26.8407 48.5 28.5008 48.2554 31.0094 47.4462C34.6801 46.2606 37.8344 44.3035 40.6013 41.4619C43.3866 38.6391 45.3049 35.4211 46.467 31.6762C47.2602 29.1169 47.5 27.4232 47.5 24.5252C47.5 21.6271 47.2602 19.9334 46.467 17.3741C45.3049 13.6292 43.3866 10.4113 40.6013 7.58848C37.1888 4.10705 32.9462 1.79236 28.3532 0.907893C26.8591 0.606796 23.0962 0.399792 22.0632 0.55034ZM29.3862 2.56393C31.8026 3.20376 34.4957 4.42696 35.2335 5.21734L35.8422 5.85717L35.5102 6.94865C35.3257 7.56966 35.086 8.15303 34.9384 8.26594C34.7908 8.39767 33.0569 8.51059 30.3823 8.58586L26.0475 8.71759L22.7272 7.08038C20.8827 6.19591 19.3885 5.36789 19.3885 5.25498C19.3885 5.14207 19.5914 4.40814 19.8312 3.63658C20.2739 2.24401 20.2924 2.22519 20.9933 2.09346C21.3807 2.03701 23.0224 1.99937 24.6456 2.03701C27.0989 2.07464 27.9105 2.16874 29.3862 2.56393ZM18.6507 2.77093C18.6507 2.80857 18.4847 3.41076 18.2818 4.08823L17.8944 5.33025L14.2422 8.13422L10.5899 10.9382L8.61617 11.2393C5.94152 11.6533 5.84929 11.6533 6.12598 11.1264C6.2551 10.9005 7.1405 9.86552 8.11813 8.84932C10.6637 6.15827 13.5781 4.25759 16.9168 3.09084C17.9313 2.73329 18.6507 2.60156 18.6507 2.77093ZM37.8713 13.8174L40.4537 17.694L38.9411 21.4766C37.4655 25.165 37.4101 25.2779 36.8383 25.3532C36.5247 25.4096 34.9753 25.5414 33.4074 25.6543C31.8395 25.7672 30.2162 25.8989 29.8104 25.9554L29.0726 26.0495L26.3057 22.2481C24.7932 20.1593 23.4835 18.3339 23.4097 18.221C23.336 18.0892 23.9631 16.2262 24.8116 14.0621L26.3611 10.129L29.0173 10.0161C30.456 9.95961 32.4666 9.92198 33.4812 9.92198L35.3073 9.9408L37.8713 13.8174ZM11.4753 15.7745C12.0655 17.5247 12.5636 19.1242 12.5636 19.2936C12.5636 19.5383 9.37245 27.762 9.1511 28.0442C9.04042 28.2136 3.80181 29.211 3.69113 29.0981C3.41444 28.7782 1.84655 22.4363 1.95722 22.0223C2.03101 21.7965 2.82418 19.6888 3.72802 17.3553L5.38815 13.1023L7.26962 12.8012C8.30259 12.6507 9.42779 12.5378 9.77826 12.5566L10.4054 12.5754L11.4753 15.7745ZM43.6817 18.6161L45.0098 18.7291L45.5263 20.1781C46.0059 21.533 46.0428 21.7777 46.0428 24.7134C46.0428 27.0657 45.969 28.176 45.7108 29.3239C45.2681 31.2246 43.9584 34.6872 43.6264 34.8189C43.3866 34.913 40.4352 34.5743 40.2877 34.4425C40.2508 34.4049 39.8634 32.5231 39.4023 30.246L38.5907 26.1247L40.1032 22.2105C41.4498 18.7479 41.6527 18.315 41.9847 18.3903C42.1876 18.4468 42.9439 18.5409 43.6817 18.6161ZM25.0145 22.7374C26.5455 24.8451 27.7998 26.6893 27.8183 26.821C27.8552 26.9528 27.0989 28.8911 26.1582 31.1117L24.4427 35.1577L21.4176 35.4587C19.739 35.6281 17.6546 35.8351 16.7692 35.9104L15.1644 36.0421L12.7665 32.3537L10.3685 28.6464L11.5675 25.6919C12.2316 24.0735 12.9878 22.1917 13.2461 21.5142C13.5043 20.8367 13.781 20.2345 13.8363 20.1593C13.947 20.0275 20.9011 18.9549 21.8787 18.9172C22.1554 18.8984 22.967 19.877 25.0145 22.7374ZM41.8556 36.1174C42.3721 36.1927 42.8148 36.2868 42.8148 36.362C42.8148 36.4185 42.5012 36.9454 42.1323 37.51C40.9702 39.2789 38.2586 41.97 36.3218 43.2873C33.8685 44.9433 30.3638 46.5052 29.958 46.11C29.9027 46.0536 30.4192 44.9998 31.1016 43.7765L32.356 41.556L36.0636 38.6955C39.2916 36.2115 39.845 35.8351 40.3246 35.9104C40.6381 35.948 41.3206 36.0421 41.8556 36.1174ZM27.7261 38.8273C29.3862 40.0881 30.7696 41.1796 30.7881 41.2737C30.8434 41.4054 28.6484 45.5455 28.3348 45.9407C28.2979 45.9783 26.5824 46.2041 24.4796 46.4676C19.3701 47.0886 19.3701 47.0886 16.0867 44.4728C14.7402 43.419 13.6888 42.4404 13.7257 42.3275L14.5004 39.9564C14.8878 38.7708 15.2751 37.717 15.3489 37.6041C15.4965 37.4723 22.1185 36.7008 24.2214 36.5879C24.6087 36.569 25.4941 37.1524 27.7261 38.8273ZM11.4015 42.3087C12.1393 42.5533 12.5451 42.8356 13.1354 43.5507C13.5412 44.0588 13.7995 44.4728 13.6888 44.4728C13.4674 44.4728 11.8811 43.5131 10.7559 42.6851C9.99961 42.1393 9.74137 41.7818 10.221 41.9323C10.3316 41.97 10.8666 42.1393 11.4015 42.3087Z" fill="white"/>
<path d="M22.0632 0.55034C19.4623 0.907893 18.5216 1.1149 16.9906 1.60418C13.3014 2.78975 10.1841 4.72806 7.39874 7.58848C4.61342 10.4113 2.69505 13.6292 1.53297 17.3741C0.739796 19.9334 0.5 21.6271 0.5 24.5252C0.5 27.4232 0.739796 29.1169 1.53297 31.6762C2.69505 35.4399 4.59498 38.6203 7.39874 41.4619C10.1656 44.3035 13.3199 46.2606 16.9906 47.4462C19.4992 48.2554 21.1593 48.5 24 48.5C26.8407 48.5 28.5008 48.2554 31.0094 47.4462C34.6801 46.2606 37.8344 44.3035 40.6013 41.4619C43.3866 38.6391 45.3049 35.4211 46.467 31.6762C47.2602 29.1169 47.5 27.4232 47.5 24.5252C47.5 21.6271 47.2602 19.9334 46.467 17.3741C45.3049 13.6292 43.3866 10.4113 40.6013 7.58848C37.1888 4.10705 32.9462 1.79236 28.3532 0.907893C26.8591 0.606796 23.0962 0.399792 22.0632 0.55034ZM29.3862 2.56393C31.8026 3.20376 34.4957 4.42696 35.2335 5.21734L35.8422 5.85717L35.5102 6.94865C35.3257 7.56966 35.086 8.15303 34.9384 8.26594C34.7908 8.39767 33.0569 8.51059 30.3823 8.58586L26.0475 8.71759L22.7272 7.08038C20.8827 6.19591 19.3885 5.36789 19.3885 5.25498C19.3885 5.14207 19.5914 4.40814 19.8312 3.63658C20.2739 2.24401 20.2924 2.22519 20.9933 2.09346C21.3807 2.03701 23.0224 1.99937 24.6456 2.03701C27.0989 2.07464 27.9105 2.16874 29.3862 2.56393ZM18.6507 2.77093C18.6507 2.80857 18.4847 3.41076 18.2818 4.08823L17.8944 5.33025L14.2422 8.13422L10.5899 10.9382L8.61617 11.2393C5.94152 11.6533 5.84929 11.6533 6.12598 11.1264C6.2551 10.9005 7.1405 9.86552 8.11813 8.84932C10.6637 6.15827 13.5781 4.25759 16.9168 3.09084C17.9313 2.73329 18.6507 2.60156 18.6507 2.77093ZM37.8713 13.8174L40.4537 17.694L38.9411 21.4766C37.4655 25.165 37.4101 25.2779 36.8383 25.3532C36.5247 25.4096 34.9753 25.5414 33.4074 25.6543C31.8395 25.7672 30.2162 25.8989 29.8104 25.9554L29.0726 26.0495L26.3057 22.2481C24.7932 20.1593 23.4835 18.3339 23.4097 18.221C23.336 18.0892 23.9631 16.2262 24.8116 14.0621L26.3611 10.129L29.0173 10.0161C30.456 9.95961 32.4666 9.92198 33.4812 9.92198L35.3073 9.9408L37.8713 13.8174ZM11.4753 15.7745C12.0655 17.5247 12.5636 19.1242 12.5636 19.2936C12.5636 19.5383 9.37245 27.762 9.1511 28.0442C9.04042 28.2136 3.80181 29.211 3.69113 29.0981C3.41444 28.7782 1.84655 22.4363 1.95722 22.0223C2.03101 21.7965 2.82418 19.6888 3.72802 17.3553L5.38815 13.1023L7.26962 12.8012C8.30259 12.6507 9.42779 12.5378 9.77826 12.5566L10.4054 12.5754L11.4753 15.7745ZM43.6817 18.6161L45.0098 18.7291L45.5263 20.1781C46.0059 21.533 46.0428 21.7777 46.0428 24.7134C46.0428 27.0657 45.969 28.176 45.7108 29.3239C45.2681 31.2246 43.9584 34.6872 43.6264 34.8189C43.3866 34.913 40.4352 34.5743 40.2877 34.4425C40.2508 34.4049 39.8634 32.5231 39.4023 30.246L38.5907 26.1247L40.1032 22.2105C41.4498 18.7479 41.6527 18.315 41.9847 18.3903C42.1876 18.4468 42.9439 18.5409 43.6817 18.6161ZM25.0145 22.7374C26.5455 24.8451 27.7998 26.6893 27.8183 26.821C27.8552 26.9528 27.0989 28.8911 26.1582 31.1117L24.4427 35.1577L21.4176 35.4587C19.739 35.6281 17.6546 35.8351 16.7692 35.9104L15.1644 36.0421L12.7665 32.3537L10.3685 28.6464L11.5675 25.6919C12.2316 24.0735 12.9878 22.1917 13.2461 21.5142C13.5043 20.8367 13.781 20.2345 13.8363 20.1593C13.947 20.0275 20.9011 18.9549 21.8787 18.9172C22.1554 18.8984 22.967 19.877 25.0145 22.7374ZM41.8556 36.1174C42.3721 36.1927 42.8148 36.2868 42.8148 36.362C42.8148 36.4185 42.5012 36.9454 42.1323 37.51C40.9702 39.2789 38.2586 41.97 36.3218 43.2873C33.8685 44.9433 30.3638 46.5052 29.958 46.11C29.9027 46.0536 30.4192 44.9998 31.1016 43.7765L32.356 41.556L36.0636 38.6955C39.2916 36.2115 39.845 35.8351 40.3246 35.9104C40.6381 35.948 41.3206 36.0421 41.8556 36.1174ZM27.7261 38.8273C29.3862 40.0881 30.7696 41.1796 30.7881 41.2737C30.8434 41.4054 28.6484 45.5455 28.3348 45.9407C28.2979 45.9783 26.5824 46.2041 24.4796 46.4676C19.3701 47.0886 19.3701 47.0886 16.0867 44.4728C14.7402 43.419 13.6888 42.4404 13.7257 42.3275L14.5004 39.9564C14.8878 38.7708 15.2751 37.717 15.3489 37.6041C15.4965 37.4723 22.1185 36.7008 24.2214 36.5879C24.6087 36.569 25.4941 37.1524 27.7261 38.8273ZM11.4015 42.3087C12.1393 42.5533 12.5451 42.8356 13.1354 43.5507C13.5412 44.0588 13.7995 44.4728 13.6888 44.4728C13.4674 44.4728 11.8811 43.5131 10.7559 42.6851C9.99961 42.1393 9.74137 41.7818 10.221 41.9323C10.3316 41.97 10.8666 42.1393 11.4015 42.3087Z" stroke="white" mask="url(#path-1-outside-1_499_766)"/>
</svg>
